<svg width="30" height="30" viewBox="0 0 30 30" fill="none" xmlns="http://www.w3.org/2000/svg">
<path d="M10.6748 28.1016C11.1014 27.918 11.4002 27.4938 11.4002 27V23.76C11.4002 23.6418 11.4098 23.5188 11.4248 23.394C11.4164 23.3964 11.4086 23.3982 11.4002 23.4C11.4002 23.4 9.6002 23.4 9.2402 23.4C8.3402 23.4 7.5602 23.04 7.2002 22.32C6.7802 21.54 6.6002 20.22 5.5202 19.5C5.3402 19.38 5.4602 19.2 5.8202 19.2C6.1802 19.26 6.9602 19.74 7.4402 20.4C7.9802 21.06 8.5202 21.6 9.4802 21.6C10.9724 21.6 11.7722 21.525 12.2534 21.267C12.8138 20.4336 13.5896 19.8 14.4002 19.8V19.785C10.9994 19.6758 8.8268 18.5454 7.8152 16.8C5.6162 16.8252 3.7016 17.043 2.609 17.2242C2.5742 17.028 2.5442 16.8306 2.5184 16.632C3.5966 16.4544 5.4242 16.2438 7.5254 16.2036C7.4582 16.038 7.4 15.8682 7.3508 15.6942C5.2442 15.5874 3.4262 15.6708 2.4386 15.7524C2.4266 15.5532 2.4104 15.3546 2.408 15.153C3.3974 15.072 5.1662 14.991 7.2188 15.0864C7.1714 14.7864 7.1408 14.4798 7.1408 14.1606C7.1408 13.1406 7.5008 12.0606 8.1608 11.1606C7.8608 10.1406 7.4408 7.9806 8.2808 7.2006C9.9008 7.2006 11.0408 7.9806 11.5808 8.4606C12.6002 8.04 13.7402 7.8 15.0002 7.8C16.2602 7.8 17.4002 8.04 18.3602 8.46C18.9002 7.98 20.0402 7.2 21.6602 7.2C22.5602 8.04 22.0802 10.2 21.7802 11.16C22.4402 12.06 22.8002 13.08 22.7402 14.16C22.7402 14.4504 22.7132 14.7306 22.6742 15.0054C24.7736 14.9022 26.5904 14.985 27.5966 15.0666C27.5954 15.2688 27.5768 15.4662 27.566 15.666C26.5634 15.5832 24.701 15.498 22.5506 15.6126C22.4972 15.8142 22.4324 16.0104 22.3556 16.2006C24.4832 16.2282 26.3546 16.434 27.4844 16.614C27.4586 16.8132 27.4286 17.0106 27.3938 17.2062C26.2466 17.0226 24.2912 16.8078 22.0664 16.797C21.0674 18.5238 18.9344 19.65 15.6002 19.7814V19.8C17.1602 19.8 18.6002 22.14 18.6002 23.76V27C18.6002 27.4938 18.899 27.918 19.3256 28.1016C24.8222 26.2824 28.8002 21.0984 28.8002 15C28.8002 7.3908 22.61 1.2 15.0002 1.2C7.3904 1.2 1.2002 7.3908 1.2002 15C1.2002 21.0984 5.1782 26.2824 10.6748 28.1016Z" fill="#292929"/>
</svg>
