<svg width="34" height="34" viewBox="0 0 34 34" fill="none" xmlns="http://www.w3.org/2000/svg">
<path d="M17.0002 2.83333C13.2429 2.83333 9.63958 4.32589 6.98282 6.98265C4.32605 9.63942 2.8335 13.2428 2.8335 17C2.8335 20.7572 4.32605 24.3606 6.98282 27.0173C9.63958 29.6741 13.2429 31.1667 17.0002 31.1667C20.7574 31.1667 24.3607 29.6741 27.0175 27.0173C29.6743 24.3606 31.1668 20.7572 31.1668 17C31.1668 13.2428 29.6743 9.63942 27.0175 6.98265C24.3607 4.32589 20.7574 2.83333 17.0002 2.83333V2.83333Z" fill="#292929"/>
<path d="M9.9165 13.4583H12.7498V24.0833H9.9165V13.4583ZM11.3247 12.0417H11.3091C10.4633 12.0417 9.9165 11.4112 9.9165 10.6243C9.9165 9.82033 10.4803 9.20833 11.341 9.20833C12.203 9.20833 12.7335 9.82033 12.7498 10.6243C12.7498 11.4112 12.203 12.0417 11.3247 12.0417ZM24.7915 17.3542C24.7915 15.2022 23.0476 13.4583 20.8957 13.4583C19.5768 13.4583 18.413 14.1157 17.7082 15.1187V13.4583H14.8748V24.0833H17.7082V18.4167C17.7082 17.243 18.6595 16.2917 19.8332 16.2917C21.0069 16.2917 21.9582 17.243 21.9582 18.4167V24.0833H24.7915C24.7915 24.0833 24.7915 17.6524 24.7915 17.3542Z" fill="white"/>
</svg>
