<svg width="280" height="30" viewBox="0 0 280 30" fill="none" xmlns="http://www.w3.org/2000/svg">
<path d="M6.388 24.248H14.452V29H0.232V3.728H6.388V24.248ZM16.1643 18.92C16.1643 16.856 16.5483 15.044 17.3163 13.484C18.1083 11.924 19.1763 10.724 20.5203 9.884C21.8643 9.044 23.3643 8.624 25.0203 8.624C26.4363 8.624 27.6723 8.912 28.7283 9.488C29.8083 10.064 30.6363 10.82 31.2123 11.756V8.912H37.3683V29H31.2123V26.156C30.6123 27.092 29.7723 27.848 28.6923 28.424C27.6363 29 26.4003 29.288 24.9843 29.288C23.3523 29.288 21.8643 28.868 20.5203 28.028C19.1763 27.164 18.1083 25.952 17.3163 24.392C16.5483 22.808 16.1643 20.984 16.1643 18.92ZM31.2123 18.956C31.2123 17.42 30.7803 16.208 29.9163 15.32C29.0763 14.432 28.0443 13.988 26.8203 13.988C25.5963 13.988 24.5523 14.432 23.6883 15.32C22.8483 16.184 22.4283 17.384 22.4283 18.92C22.4283 20.456 22.8483 21.68 23.6883 22.592C24.5523 23.48 25.5963 23.924 26.8203 23.924C28.0443 23.924 29.0763 23.48 29.9163 22.592C30.7803 21.704 31.2123 20.492 31.2123 18.956ZM47.9778 12.26C48.6978 11.156 49.5978 10.292 50.6778 9.668C51.7578 9.02 52.9578 8.696 54.2778 8.696V15.212H52.5858C51.0498 15.212 49.8978 15.548 49.1298 16.22C48.3618 16.868 47.9778 18.02 47.9778 19.676V29H41.8218V8.912H47.9778V12.26ZM60.3163 6.824C59.2363 6.824 58.3483 6.512 57.6523 5.888C56.9803 5.24 56.6443 4.448 56.6443 3.512C56.6443 2.552 56.9803 1.76 57.6523 1.136C58.3483 0.487998 59.2363 0.163998 60.3163 0.163998C61.3723 0.163998 62.2363 0.487998 62.9083 1.136C63.6043 1.76 63.9523 2.552 63.9523 3.512C63.9523 4.448 63.6043 5.24 62.9083 5.888C62.2363 6.512 61.3723 6.824 60.3163 6.824ZM63.3763 8.912V29H57.2203V8.912H63.3763ZM76.0095 29.288C74.2575 29.288 72.6975 28.988 71.3295 28.388C69.9615 27.788 68.8815 26.972 68.0895 25.94C67.2975 24.884 66.8535 23.708 66.7575 22.412H72.8415C72.9135 23.108 73.2375 23.672 73.8135 24.104C74.3895 24.536 75.0975 24.752 75.9375 24.752C76.7055 24.752 77.2935 24.608 77.7015 24.32C78.1335 24.008 78.3495 23.612 78.3495 23.132C78.3495 22.556 78.0495 22.136 77.4495 21.872C76.8495 21.584 75.8775 21.272 74.5335 20.936C73.0935 20.6 71.8935 20.252 70.9335 19.892C69.9735 19.508 69.1455 18.92 68.4495 18.128C67.7535 17.312 67.4055 16.22 67.4055 14.852C67.4055 13.7 67.7175 12.656 68.3415 11.72C68.9895 10.76 69.9255 10.004 71.1495 9.452C72.3975 8.9 73.8735 8.624 75.5775 8.624C78.0975 8.624 80.0775 9.248 81.5175 10.496C82.9815 11.744 83.8215 13.4 84.0375 15.464H78.3495C78.2535 14.768 77.9415 14.216 77.4135 13.808C76.9095 13.4 76.2375 13.196 75.3975 13.196C74.6775 13.196 74.1255 13.34 73.7415 13.628C73.3575 13.892 73.1655 14.264 73.1655 14.744C73.1655 15.32 73.4655 15.752 74.0655 16.04C74.6895 16.328 75.6495 16.616 76.9455 16.904C78.4335 17.288 79.6455 17.672 80.5815 18.056C81.5175 18.416 82.3335 19.016 83.0295 19.856C83.7495 20.672 84.1215 21.776 84.1455 23.168C84.1455 24.344 83.8095 25.4 83.1375 26.336C82.4895 27.248 81.5415 27.968 80.2935 28.496C79.0695 29.024 77.6415 29.288 76.0095 29.288ZM96.0837 29.288C94.3317 29.288 92.7717 28.988 91.4037 28.388C90.0357 27.788 88.9557 26.972 88.1637 25.94C87.3717 24.884 86.9277 23.708 86.8317 22.412H92.9157C92.9877 23.108 93.3117 23.672 93.8877 24.104C94.4637 24.536 95.1717 24.752 96.0117 24.752C96.7797 24.752 97.3677 24.608 97.7757 24.32C98.2077 24.008 98.4237 23.612 98.4237 23.132C98.4237 22.556 98.1237 22.136 97.5237 21.872C96.9237 21.584 95.9517 21.272 94.6077 20.936C93.1677 20.6 91.9677 20.252 91.0077 19.892C90.0477 19.508 89.2197 18.92 88.5237 18.128C87.8277 17.312 87.4797 16.22 87.4797 14.852C87.4797 13.7 87.7917 12.656 88.4157 11.72C89.0637 10.76 89.9997 10.004 91.2237 9.452C92.4717 8.9 93.9477 8.624 95.6517 8.624C98.1717 8.624 100.152 9.248 101.592 10.496C103.056 11.744 103.896 13.4 104.112 15.464H98.4237C98.3277 14.768 98.0157 14.216 97.4877 13.808C96.9837 13.4 96.3117 13.196 95.4717 13.196C94.7517 13.196 94.1997 13.34 93.8157 13.628C93.4317 13.892 93.2397 14.264 93.2397 14.744C93.2397 15.32 93.5397 15.752 94.1397 16.04C94.7637 16.328 95.7237 16.616 97.0197 16.904C98.5077 17.288 99.7197 17.672 100.656 18.056C101.592 18.416 102.408 19.016 103.104 19.856C103.824 20.672 104.196 21.776 104.22 23.168C104.22 24.344 103.884 25.4 103.212 26.336C102.564 27.248 101.616 27.968 100.368 28.496C99.1437 29.024 97.7157 29.288 96.0837 29.288ZM106.762 18.92C106.762 16.856 107.146 15.044 107.914 13.484C108.706 11.924 109.774 10.724 111.118 9.884C112.462 9.044 113.962 8.624 115.618 8.624C117.034 8.624 118.27 8.912 119.326 9.488C120.406 10.064 121.234 10.82 121.81 11.756V8.912H127.966V29H121.81V26.156C121.21 27.092 120.37 27.848 119.29 28.424C118.234 29 116.998 29.288 115.582 29.288C113.95 29.288 112.462 28.868 111.118 28.028C109.774 27.164 108.706 25.952 107.914 24.392C107.146 22.808 106.762 20.984 106.762 18.92ZM121.81 18.956C121.81 17.42 121.378 16.208 120.514 15.32C119.674 14.432 118.642 13.988 117.418 13.988C116.194 13.988 115.15 14.432 114.286 15.32C113.446 16.184 113.026 17.384 113.026 18.92C113.026 20.456 113.446 21.68 114.286 22.592C115.15 23.48 116.194 23.924 117.418 23.924C118.642 23.924 119.674 23.48 120.514 22.592C121.378 21.704 121.81 20.492 121.81 18.956ZM162.656 29H156.5L146.204 13.412V29H140.048V3.728H146.204L156.5 19.388V3.728H162.656V29ZM165.895 18.92C165.895 16.856 166.279 15.044 167.047 13.484C167.839 11.924 168.907 10.724 170.251 9.884C171.595 9.044 173.095 8.624 174.751 8.624C176.167 8.624 177.403 8.912 178.459 9.488C179.539 10.064 180.367 10.82 180.943 11.756V8.912H187.099V29H180.943V26.156C180.343 27.092 179.503 27.848 178.423 28.424C177.367 29 176.131 29.288 174.715 29.288C173.083 29.288 171.595 28.868 170.251 28.028C168.907 27.164 167.839 25.952 167.047 24.392C166.279 22.808 165.895 20.984 165.895 18.92ZM180.943 18.956C180.943 17.42 180.511 16.208 179.647 15.32C178.807 14.432 177.775 13.988 176.551 13.988C175.327 13.988 174.283 14.432 173.419 15.32C172.579 16.184 172.159 17.384 172.159 18.92C172.159 20.456 172.579 21.68 173.419 22.592C174.283 23.48 175.327 23.924 176.551 23.924C177.775 23.924 178.807 23.48 179.647 22.592C180.511 21.704 180.943 20.492 180.943 18.956ZM197.708 12.26C198.428 11.156 199.328 10.292 200.408 9.668C201.488 9.02 202.688 8.696 204.008 8.696V15.212H202.316C200.78 15.212 199.628 15.548 198.86 16.22C198.092 16.868 197.708 18.02 197.708 19.676V29H191.552V8.912H197.708V12.26ZM205.727 18.956C205.727 16.868 206.147 15.044 206.987 13.484C207.851 11.924 209.039 10.724 210.551 9.884C212.087 9.044 213.839 8.624 215.807 8.624C218.327 8.624 220.427 9.284 222.107 10.604C223.811 11.924 224.927 13.784 225.455 16.184H218.903C218.351 14.648 217.283 13.88 215.699 13.88C214.571 13.88 213.671 14.324 212.999 15.212C212.327 16.076 211.991 17.324 211.991 18.956C211.991 20.588 212.327 21.848 212.999 22.736C213.671 23.6 214.571 24.032 215.699 24.032C217.283 24.032 218.351 23.264 218.903 21.728H225.455C224.927 24.08 223.811 25.928 222.107 27.272C220.403 28.616 218.303 29.288 215.807 29.288C213.839 29.288 212.087 28.868 210.551 28.028C209.039 27.188 207.851 25.988 206.987 24.428C206.147 22.868 205.727 21.044 205.727 18.956ZM231.844 6.824C230.764 6.824 229.876 6.512 229.18 5.888C228.508 5.24 228.172 4.448 228.172 3.512C228.172 2.552 228.508 1.76 229.18 1.136C229.876 0.487998 230.764 0.163998 231.844 0.163998C232.9 0.163998 233.764 0.487998 234.436 1.136C235.132 1.76 235.48 2.552 235.48 3.512C235.48 4.448 235.132 5.24 234.436 5.888C233.764 6.512 232.9 6.824 231.844 6.824ZM234.904 8.912V29H228.748V8.912H234.904ZM247.537 29.288C245.785 29.288 244.225 28.988 242.857 28.388C241.489 27.788 240.409 26.972 239.617 25.94C238.825 24.884 238.381 23.708 238.285 22.412H244.369C244.441 23.108 244.765 23.672 245.341 24.104C245.917 24.536 246.625 24.752 247.465 24.752C248.233 24.752 248.821 24.608 249.229 24.32C249.661 24.008 249.877 23.612 249.877 23.132C249.877 22.556 249.577 22.136 248.977 21.872C248.377 21.584 247.405 21.272 246.061 20.936C244.621 20.6 243.421 20.252 242.461 19.892C241.501 19.508 240.673 18.92 239.977 18.128C239.281 17.312 238.933 16.22 238.933 14.852C238.933 13.7 239.245 12.656 239.869 11.72C240.517 10.76 241.453 10.004 242.677 9.452C243.925 8.9 245.401 8.624 247.105 8.624C249.625 8.624 251.605 9.248 253.045 10.496C254.509 11.744 255.349 13.4 255.565 15.464H249.877C249.781 14.768 249.469 14.216 248.941 13.808C248.437 13.4 247.765 13.196 246.925 13.196C246.205 13.196 245.653 13.34 245.269 13.628C244.885 13.892 244.693 14.264 244.693 14.744C244.693 15.32 244.993 15.752 245.593 16.04C246.217 16.328 247.177 16.616 248.473 16.904C249.961 17.288 251.173 17.672 252.109 18.056C253.045 18.416 253.861 19.016 254.557 19.856C255.277 20.672 255.649 21.776 255.673 23.168C255.673 24.344 255.337 25.4 254.665 26.336C254.017 27.248 253.069 27.968 251.821 28.496C250.597 29.024 249.169 29.288 247.537 29.288ZM268.583 29.288C266.615 29.288 264.839 28.868 263.255 28.028C261.695 27.188 260.459 25.988 259.547 24.428C258.659 22.868 258.215 21.044 258.215 18.956C258.215 16.892 258.671 15.08 259.583 13.52C260.495 11.936 261.743 10.724 263.327 9.884C264.911 9.044 266.687 8.624 268.655 8.624C270.623 8.624 272.399 9.044 273.983 9.884C275.567 10.724 276.815 11.936 277.727 13.52C278.639 15.08 279.095 16.892 279.095 18.956C279.095 21.02 278.627 22.844 277.691 24.428C276.779 25.988 275.519 27.188 273.911 28.028C272.327 28.868 270.551 29.288 268.583 29.288ZM268.583 23.96C269.759 23.96 270.755 23.528 271.571 22.664C272.411 21.8 272.831 20.564 272.831 18.956C272.831 17.348 272.423 16.112 271.607 15.248C270.815 14.384 269.831 13.952 268.655 13.952C267.455 13.952 266.459 14.384 265.667 15.248C264.875 16.088 264.479 17.324 264.479 18.956C264.479 20.564 264.863 21.8 265.631 22.664C266.423 23.528 267.407 23.96 268.583 23.96Z" fill="#141414"/>
</svg>
